<svg width="18" height="18" viewBox="0 0 18 18" fill="none" xmlns="http://www.w3.org/2000/svg">
<path d="M7.5 7.5H10.5" stroke="#50826C" stroke-width="2" stroke-linecap="round" stroke-linejoin="round"/>
<path d="M14.25 5.25V3C14.25 2.80109 14.171 2.61032 14.0303 2.46967C13.8897 2.32902 13.6989 2.25 13.5 2.25H12C11.8011 2.25 11.6103 2.32902 11.4697 2.46967C11.329 2.61032 11.25 2.80109 11.25 3V5.25" stroke="#50826C" stroke-width="2" stroke-linecap="round" stroke-linejoin="round"/>
<path d="M15 15.75C15.3978 15.75 15.7794 15.592 16.0607 15.3107C16.342 15.0294 16.5 14.6478 16.5 14.25V11.3618C16.5 10.3193 15 9.14025 15 7.74V6C15 5.80109 14.921 5.61032 14.7803 5.46967C14.6397 5.32902 14.4489 5.25 14.25 5.25H11.25C11.0511 5.25 10.8603 5.32902 10.7197 5.46967C10.579 5.61032 10.5 5.80109 10.5 6V14.25C10.5 14.6478 10.658 15.0294 10.9393 15.3107C11.2206 15.592 11.6022 15.75 12 15.75H15Z" stroke="#50826C" stroke-width="2" stroke-linecap="round" stroke-linejoin="round"/>
<path d="M16.5 12H1.5" stroke="#50826C" stroke-width="2" stroke-linecap="round" stroke-linejoin="round"/>
<path d="M3 15.75C2.60218 15.75 2.22064 15.592 1.93934 15.3107C1.65804 15.0294 1.5 14.6478 1.5 14.25V11.3618C1.5 10.3193 3 9.14025 3 7.74V6C3 5.80109 3.07902 5.61032 3.21967 5.46967C3.36032 5.32902 3.55109 5.25 3.75 5.25H6.75C6.94891 5.25 7.13968 5.32902 7.28033 5.46967C7.42098 5.61032 7.5 5.80109 7.5 6V14.25C7.5 14.6478 7.34196 15.0294 7.06066 15.3107C6.77936 15.592 6.39782 15.75 6 15.75H3Z" stroke="#50826C" stroke-width="2" stroke-linecap="round" stroke-linejoin="round"/>
<path d="M6.75 5.25V3C6.75 2.80109 6.67098 2.61032 6.53033 2.46967C6.38968 2.32902 6.19891 2.25 6 2.25H4.5C4.30109 2.25 4.11032 2.32902 3.96967 2.46967C3.82902 2.61032 3.75 2.80109 3.75 3V5.25" stroke="#50826C" stroke-width="2" stroke-linecap="round" stroke-linejoin="round"/>
</svg>
